<svg width="400" height="400" viewBox="0 0 400 400" fill="none" xmlns="http://www.w3.org/2000/svg">
<g filter="url(#filter0_d_610_9271)">
<circle cx="200" cy="200" r="160" fill="#001E40"/>
<circle cx="200" cy="200" r="158" stroke="#4FC8E0" stroke-width="4"/>
</g>
<g filter="url(#filter1_d_610_9271)">
<path fill-rule="evenodd" clip-rule="evenodd" d="M197.787 160.754L187.042 143.32L197.82 126.251C160.367 130.171 131.174 161.844 131.174 200.335L120 200.335L148.865 232.304L176.8 200.335L165.316 200.335C165.316 180.747 179.274 164.418 197.787 160.754Z" fill="#001E40"/>
<path d="M187.042 143.32L185.193 142.152L184.464 143.306L185.18 144.468L187.042 143.32ZM197.787 160.754L198.212 162.9L201.302 162.288L199.649 159.606L197.787 160.754ZM197.82 126.251L199.67 127.419L202.078 123.606L197.593 124.076L197.82 126.251ZM131.174 200.335L131.174 202.522H133.361V200.335H131.174ZM120 200.335L120 198.147L115.077 198.147L118.376 201.801L120 200.335ZM148.865 232.304L147.242 233.77L148.892 235.598L150.513 233.744L148.865 232.304ZM176.8 200.335L178.447 201.774L181.616 198.147L176.8 198.147L176.8 200.335ZM165.316 200.335H163.128V202.522H165.316L165.316 200.335ZM185.18 144.468L195.924 161.902L199.649 159.606L188.905 142.173L185.18 144.468ZM195.971 125.083L185.193 142.152L188.892 144.488L199.67 127.419L195.971 125.083ZM133.361 200.335C133.361 162.976 161.697 132.232 198.048 128.427L197.593 124.076C159.037 128.111 128.986 160.712 128.986 200.335H133.361ZM131.174 198.147L120 198.147L120 202.522L131.174 202.522L131.174 198.147ZM118.376 201.801L147.242 233.77L150.489 230.838L121.624 198.869L118.376 201.801ZM150.513 233.744L178.447 201.774L175.153 198.895L147.218 230.865L150.513 233.744ZM176.8 198.147L165.316 198.147L165.316 202.522L176.8 202.522L176.8 198.147ZM197.362 158.608C177.845 162.471 163.128 179.682 163.128 200.335H167.503C167.503 181.811 180.703 166.365 198.212 162.9L197.362 158.608Z" fill="#4FC8E0"/>
</g>
<path d="M120 239.443H195.917L206.907 257.135L195.917 274.206H120V239.443Z" fill="#001E40"/>
<path d="M120 239.443V237.256H117.812V239.443H120ZM195.917 239.443L197.776 238.289L197.134 237.256H195.917V239.443ZM195.917 274.206V276.393H197.111L197.757 275.39L195.917 274.206ZM120 274.206H117.812V276.393H120V274.206ZM206.907 257.135L208.746 258.319L209.495 257.156L208.765 255.981L206.907 257.135ZM120 241.631H195.917V237.256H120V241.631ZM195.917 272.018H120V276.393H195.917V272.018ZM122.188 274.206V239.443H117.812V274.206H122.188ZM194.059 240.597L205.049 258.289L208.765 255.981L197.776 238.289L194.059 240.597ZM205.067 255.951L194.078 273.022L197.757 275.39L208.746 258.319L205.067 255.951Z" fill="#E5E57E"/>
<g filter="url(#filter2_d_610_9271)">
<path d="M208.951 274.755C246.948 273.106 277.562 242.991 280 205.203L262.465 194.265L245.784 204.67C243.759 223.634 228.595 238.67 209.573 240.498L219.942 256.92L208.951 274.755Z" fill="#001E40"/>
<path d="M280 205.203L282.183 205.344L282.267 204.039L281.158 203.347L280 205.203ZM208.951 274.755L207.088 273.608L204.924 277.12L209.045 276.941L208.951 274.755ZM262.465 194.265L263.623 192.409L262.465 191.687L261.307 192.409L262.465 194.265ZM245.784 204.67L244.627 202.814L243.722 203.378L243.609 204.438L245.784 204.67ZM209.573 240.498L209.363 238.32L205.825 238.66L207.723 241.666L209.573 240.498ZM219.942 256.92L221.805 258.068L222.521 256.906L221.792 255.752L219.942 256.92ZM277.817 205.062C275.451 241.738 245.735 270.969 208.856 272.57L209.045 276.941C248.162 275.243 279.673 244.245 282.183 205.344L277.817 205.062ZM261.307 196.121L278.842 207.059L281.158 203.347L263.623 192.409L261.307 196.121ZM246.942 206.526L263.623 196.121L261.307 192.409L244.627 202.814L246.942 206.526ZM209.782 242.675C229.839 240.748 245.824 224.898 247.96 204.902L243.609 204.438C241.694 222.37 227.351 236.591 209.363 238.32L209.782 242.675ZM207.723 241.666L218.093 258.088L221.792 255.752L211.422 239.33L207.723 241.666ZM218.08 255.772L207.088 273.608L210.813 275.903L221.805 258.068L218.08 255.772Z" fill="#E626B0"/>
</g>
<path d="M199.847 143.535L210.252 160.216C227.876 162.098 242.107 175.328 245.497 192.457L262.931 181.712L280 192.49C276.246 156.629 247.049 128.34 210.785 126L199.847 143.535Z" fill="#001E40"/>
<path d="M210.252 160.216L208.396 161.373L208.96 162.278L210.019 162.391L210.252 160.216ZM199.847 143.535L197.991 142.377L197.268 143.535L197.991 144.693L199.847 143.535ZM245.497 192.457L243.351 192.881L243.963 195.972L246.645 194.319L245.497 192.457ZM262.931 181.712L264.099 179.862L262.945 179.134L261.783 179.85L262.931 181.712ZM280 192.49L278.832 194.34L282.645 196.748L282.175 192.263L280 192.49ZM210.785 126L210.926 123.817L209.621 123.733L208.929 124.842L210.785 126ZM212.108 159.058L201.703 142.377L197.991 144.693L208.396 161.373L212.108 159.058ZM247.643 192.032C244.069 173.972 229.069 160.026 210.484 158.04L210.019 162.391C226.683 164.171 240.145 176.684 243.351 192.881L247.643 192.032ZM261.783 179.85L244.349 190.594L246.645 194.319L264.079 183.574L261.783 179.85ZM281.168 190.641L264.099 179.862L261.763 183.562L278.832 194.34L281.168 190.641ZM210.644 128.183C245.84 130.454 274.181 157.913 277.824 192.718L282.175 192.263C278.312 155.345 248.258 126.225 210.926 123.817L210.644 128.183ZM201.703 144.693L212.641 127.158L208.929 124.842L197.991 142.377L201.703 144.693Z" fill="#E5E57E"/>
<defs>
<filter id="filter0_d_610_9271" x="0" y="0" width="400" height="400" filterUnits="userSpaceOnUse" color-interpolation-filters="sRGB">
<feFlood flood-opacity="0" result="BackgroundImageFix"/>
<feColorMatrix in="SourceAlpha" type="matrix" values="0 0 0 0 0 0 0 0 0 0 0 0 0 0 0 0 0 0 127 0" result="hardAlpha"/>
<feOffset/>
<feGaussianBlur stdDeviation="20"/>
<feComposite in2="hardAlpha" operator="out"/>
<feColorMatrix type="matrix" values="0 0 0 0 0.309804 0 0 0 0 0.784314 0 0 0 0 0.878431 0 0 0 0.5 0"/>
<feBlend mode="normal" in2="BackgroundImageFix" result="effect1_dropShadow_610_9271"/>
<feBlend mode="normal" in="SourceGraphic" in2="effect1_dropShadow_610_9271" result="shape"/>
</filter>
<filter id="filter1_d_610_9271" x="75.0775" y="83.6062" width="167" height="191.992" filterUnits="userSpaceOnUse" color-interpolation-filters="sRGB">
<feFlood flood-opacity="0" result="BackgroundImageFix"/>
<feColorMatrix in="SourceAlpha" type="matrix" values="0 0 0 0 0 0 0 0 0 0 0 0 0 0 0 0 0 0 127 0" result="hardAlpha"/>
<feOffset/>
<feGaussianBlur stdDeviation="20"/>
<feComposite in2="hardAlpha" operator="out"/>
<feColorMatrix type="matrix" values="0 0 0 0 0.309804 0 0 0 0 0.784314 0 0 0 0 0.878431 0 0 0 0.5 0"/>
<feBlend mode="normal" in2="BackgroundImageFix" result="effect1_dropShadow_610_9271"/>
<feBlend mode="normal" in="SourceGraphic" in2="effect1_dropShadow_610_9271" result="shape"/>
</filter>
<filter id="filter2_d_610_9271" x="188.924" y="175.687" width="109.344" height="117.433" filterUnits="userSpaceOnUse" color-interpolation-filters="sRGB">
<feFlood flood-opacity="0" result="BackgroundImageFix"/>
<feColorMatrix in="SourceAlpha" type="matrix" values="0 0 0 0 0 0 0 0 0 0 0 0 0 0 0 0 0 0 127 0" result="hardAlpha"/>
<feOffset/>
<feGaussianBlur stdDeviation="8"/>
<feComposite in2="hardAlpha" operator="out"/>
<feColorMatrix type="matrix" values="0 0 0 0 0.901961 0 0 0 0 0.14902 0 0 0 0 0.690196 0 0 0 0.6 0"/>
<feBlend mode="normal" in2="BackgroundImageFix" result="effect1_dropShadow_610_9271"/>
<feBlend mode="normal" in="SourceGraphic" in2="effect1_dropShadow_610_9271" result="shape"/>
</filter>
</defs>
</svg>
