<svg width="457" height="380" viewBox="0 0 457 380" fill="none" xmlns="http://www.w3.org/2000/svg">
<path d="M28.88 357.48C29.44 354.96 30.04 351.96 30.64 348.92H44.48C44.2 351.36 43.88 354.36 43.44 357.48H28.88ZM45.2 366.72C46.16 360.16 47.32 351.64 47.84 346.24L45.64 345.96L45.08 346.12H31.16C31.6 343.88 32 341.76 32.32 339.72H53.72V336.84H20.56V339.72H29.16C28.08 346.32 26.32 355.04 24.92 360.28H43.08C42.76 362.52 42.44 364.72 42.12 366.72H19.24V369.64H54.92V366.72H45.2ZM86.44 355.96V353.04H91.48V355.96H86.44ZM86.44 348.2H91.48V351.08H86.44V348.2ZM99.4 348.2V351.08H94.16V348.2H99.4ZM99.4 355.96H94.16V353.04H99.4V355.96ZM109.92 343.8C110 341 110 338.04 110 335.04H107.2C107.2 338.08 107.2 341 107.12 343.8H102.36V346.6H107.04C106.68 354.08 105.6 360.52 102.16 365.24V365.08C99.48 365.4 96.76 365.68 94.16 365.92V362.76H102V360.48H94.16V358.04H101.92V346.16H94.16V343.64H102.64V341.32H94.16V338.4C97.08 338.08 99.8 337.72 101.96 337.24L100.48 334.96C96.36 335.88 89.16 336.6 83.24 336.92C83.56 337.52 83.84 338.48 83.96 339.12C86.32 339.04 88.92 338.88 91.48 338.68V341.32H82.84V343.64H91.48V346.16H84V358.04H91.48V360.48H83.92V362.76H91.48V366.2C88.2 366.52 85.2 366.8 82.8 367L83.24 369.6C87.72 369.12 93.92 368.44 99.96 367.72C99.44 368.2 98.88 368.68 98.24 369.12C98.96 369.6 100 370.6 100.44 371.24C107.48 365.96 109.32 357.24 109.8 346.6H115.52C115.12 361.12 114.64 366.4 113.72 367.56C113.32 368.08 112.96 368.2 112.28 368.2C111.52 368.2 109.76 368.16 107.84 368C108.28 368.76 108.6 370 108.68 370.8C110.52 370.92 112.4 370.96 113.52 370.8C114.72 370.68 115.52 370.36 116.2 369.32C117.56 367.64 117.92 362.08 118.36 345.32C118.36 344.92 118.4 343.8 118.4 343.8H109.92ZM181.08 339.6C179.88 338.24 177.36 336.2 175.32 334.84L173.32 336.48C175.36 337.92 177.84 340.08 179 341.48L181.08 339.6ZM158.8 353.68H166.28V350.8H148.76V353.68H155.88V365.28C152.68 365.92 149.76 366.52 147.52 366.96L148.44 369.88C153.52 368.76 160.84 367.08 167.6 365.44L167.36 362.84C164.48 363.48 161.6 364.04 158.8 364.64V353.68ZM182.72 344.84V341.96H170.88C170.76 339.6 170.72 337.2 170.72 334.72H167.6C167.64 337.16 167.68 339.6 167.8 341.96H147.36V344.84H168C169.04 359.64 172.36 371.12 178.88 371.12C181.92 371.12 183.04 369.08 183.56 362.16C182.72 361.84 181.6 361.2 180.92 360.52C180.68 365.84 180.2 368.04 179.12 368.04C175.16 368.04 172 358.32 171.04 344.84H182.72ZM212.56 360.12C212.16 363.32 211.56 366.84 210.68 369.32C211.24 369.48 212.36 369.84 212.84 370.12C213.68 367.64 214.44 363.96 214.84 360.48L212.56 360.12ZM216.68 360.36C217.12 363.08 217.6 366.56 217.68 368.92L219.92 368.36C219.76 366.04 219.32 362.6 218.8 359.96L216.68 360.36ZM221 359.6C221.88 362.04 222.84 365.24 223.24 367.36L225.28 366.6C224.88 364.56 223.88 361.4 222.96 358.92L221 359.6ZM220.64 350.44C221.08 351.6 221.6 352.88 222.04 354.16L215.12 355.12C218.32 351.32 221.44 346.56 223.92 341.84L221.6 340.44C220.76 342.32 219.68 344.24 218.68 345.96L214.48 346.36C216.68 343.32 218.84 339.4 220.52 335.64L218 334.56C216.44 338.88 213.72 343.44 212.88 344.64C212.08 345.84 211.36 346.68 210.76 346.84C211.04 347.52 211.48 348.84 211.6 349.4C212.12 349.12 212.96 348.92 217.12 348.44C215.72 350.64 214.48 352.36 213.84 353.12C212.68 354.64 211.8 355.64 211 355.8C211.32 356.52 211.76 357.8 211.84 358.4C212.56 358 213.8 357.72 222.72 356.32C222.88 357 223.08 357.68 223.2 358.24L225.44 357.36C224.96 355.44 223.8 352.24 222.76 349.72L220.64 350.44ZM235 361.12C234.16 361.12 234.04 360.8 234.04 359.76V355.84H242.28V353.48H236.36L237.8 352.84C237.44 351.96 236.72 350.4 236.04 349.24H242.76V346.88H239.36C240 345.16 240.76 342.88 241.36 340.92L239.16 340.28C238.8 342.2 238 345 237.28 346.88H229.68V349.24H235.8L233.96 349.96C234.52 351 235.16 352.4 235.52 353.48H230.08V355.84H231.56V359.72C231.56 362.36 232.16 363.32 234.8 363.32H239.92C240.92 363.32 241.96 363.28 242.48 363.12C242.4 362.52 242.32 361.6 242.24 360.92C241.64 361.08 240.52 361.12 239.88 361.12H235ZM231.04 340.84C232 342.6 232.84 345 233.12 346.56L235.04 345.88C234.8 344.32 233.88 341.96 232.88 340.2L231.04 340.84ZM246.32 336.44H225.96V371.12H228.64V339.08H243.6V367.72C243.6 368.28 243.44 368.44 242.92 368.48C242.44 368.48 240.84 368.52 239.16 368.44C239.52 369.16 239.84 370.36 239.92 371.08C242.36 371.08 244 371.04 244.96 370.56C246 370.08 246.32 369.36 246.32 367.72V336.44ZM303.32 348.96H283.24V345.32H303.32V348.96ZM303.32 354.88H283.24V351.2H303.32V354.88ZM303.32 360.84H283.24V357.16H303.32V360.84ZM280.2 342.96V363.24H306.48V342.96H293.48C293.88 341.84 294.28 340.56 294.64 339.32H309.52V336.6H276.36V339.32H291.24C291.04 340.52 290.72 341.84 290.4 342.96H280.2ZM287.44 363.68C284.68 365.52 279.24 367.6 274.96 368.72C275.64 369.36 276.52 370.4 277 371.04C281.28 369.84 286.64 367.72 290.12 365.64L287.44 363.68ZM295.92 365.84C300.6 367.44 305.32 369.52 308.16 371.08L310.92 369.04C307.8 367.48 302.72 365.44 298.04 363.88L295.92 365.84ZM360.32 338.76H366.96V345.16C366.96 348.16 367.52 349.28 370.12 349.28H372.72C373.48 349.28 374.28 349.24 374.68 349.08C374.6 348.4 374.52 347.28 374.48 346.52C374 346.64 373.2 346.72 372.72 346.72H370.36C369.8 346.72 369.72 346.36 369.72 345.24V335.96H357.56V340.36C357.56 343.2 356.88 346.48 352.6 348.92C353.12 349.36 354.12 350.48 354.52 351.08C359.28 348.28 360.32 344.04 360.32 340.44V338.76ZM348.72 339.52C348.08 338.08 346.8 336 345.64 334.36L343.32 335.52C344.44 337.2 345.68 339.44 346.32 340.88L348.72 339.52ZM354.12 341.32H339V343.76H354.12V341.32ZM340.72 354.12H352.52V351.76H340.72V354.12ZM340.72 346.56V348.92H352.48V346.56H340.72ZM369.32 354.88C368 357.92 366.04 360.44 363.68 362.52C361.28 360.4 359.36 357.84 358.04 354.88H369.32ZM349.84 366.16H343.28V359.56H349.84V366.16ZM371.2 351.96L370.72 352.08H353.68V354.88H357.12L355.4 355.48C356.88 358.88 358.88 361.88 361.4 364.32C358.72 366.16 355.64 367.52 352.48 368.36V357.08H340.68V370.52H343.28V368.64H352.4C352.92 369.32 353.48 370.36 353.76 371.12C357.36 370.04 360.72 368.44 363.68 366.24C366.52 368.4 369.84 370 373.6 371C374 370.16 374.84 368.96 375.44 368.32C371.88 367.52 368.72 366.16 366 364.32C369.16 361.4 371.64 357.64 373.12 352.8L371.2 351.96ZM413.76 339.52C413.16 338.12 411.88 336.04 410.68 334.4L408.44 335.56C409.48 337.2 410.76 339.44 411.36 340.88L413.76 339.52ZM420.12 341.32H403.68V343.76H420.12V341.32ZM418.36 351.76H405.44V354.12H418.36V351.76ZM415.8 359.56V366.16H408.36V359.56H415.8ZM418.4 357.08H405.76V370.52H408.36V368.64H418.4V357.08ZM405.44 348.92H418.44V346.56H405.44V348.92ZM439.08 348.32H430.88V335.28H427.88V348.32H420.04V351.24H427.88V371.08H430.88V351.24H439.08V348.32Z" fill="#E5E57E"/>
<g filter="url(#filter0_d_8_707)">
<path d="M72.5 78.2001C72.5 65.995 81.2301 56.1013 92 56.1013V41.3679C74.0511 41.3679 59.5 57.8573 59.5 78.2001V122.41C59.5 134.613 50.7721 144.501 40 144.501V159.235C50.7696 159.235 59.5 169.129 59.5 181.335V225.535C59.5 245.877 74.0507 262.368 92 262.368V247.635C81.2304 247.635 72.5 237.74 72.5 225.535V181.335C72.5 169.287 67.396 158.59 59.505 151.869C67.3956 145.152 72.5 134.459 72.5 122.41V78.2001Z" fill="#4FC8E0"/>
</g>
<g filter="url(#filter1_d_8_707)">
<path d="M384.5 78.2001C384.5 65.995 375.77 56.1013 365 56.1013V41.3679C382.949 41.3679 397.5 57.8573 397.5 78.2001V122.41C397.5 134.613 406.228 144.501 417 144.501V159.235C406.23 159.235 397.5 169.129 397.5 181.335V225.535C397.5 245.877 382.949 262.368 365 262.368V247.635C375.77 247.635 384.5 237.74 384.5 225.535V181.335C384.5 169.287 389.604 158.59 397.495 151.869C389.604 145.152 384.5 134.459 384.5 122.41V78.2001Z" fill="#4FC8E0"/>
</g>
<g filter="url(#filter2_d_8_707)">
<path d="M186.945 45.124H174.465V40.6H204.573V45.124H192.093V77H186.945V45.124ZM241.541 40.6V77H236.341V60.776H215.437V77H210.237V40.6H215.437V56.252H236.341V40.6H241.541ZM278.852 72.476V77H252.436V40.6H278.124V45.124H257.636V56.304H275.888V60.724H257.636V72.476H278.852Z" fill="#4FC8E0"/>
</g>
<g filter="url(#filter3_d_8_707)">
<path d="M142.61 123.066V147.91H182.034V160.741H142.61V192H127.447V110.353H187.049V123.066H142.61ZM255.359 179.17V192H195.173V181.852L227.599 151.06C231.253 147.561 233.703 144.528 234.947 141.962C236.269 139.318 236.93 136.713 236.93 134.147C236.93 130.337 235.647 127.421 233.081 125.399C230.515 123.377 226.743 122.367 221.767 122.367C213.446 122.367 207.07 125.205 202.638 130.881L192.024 122.716C195.212 118.44 199.489 115.135 204.854 112.802C210.297 110.392 216.362 109.186 223.05 109.186C231.914 109.186 238.99 111.286 244.278 115.485C249.566 119.684 252.209 125.399 252.209 132.631C252.209 137.063 251.276 141.223 249.41 145.111C247.544 148.999 243.967 153.431 238.679 158.408L216.868 179.17H255.359ZM331.178 179.286V192H269.942V110.353H329.545V123.066H285.105V144.295H324.529V156.775H285.105V179.286H331.178Z" fill="#E626B0"/>
</g>
<g filter="url(#filter4_d_8_707)">
<path d="M209.013 250.056H202.097V259H197.053V250.056H176.825V246.416L195.441 222.6H201.057L183.221 245.584H197.209V237.68H202.097V245.584H209.013V250.056ZM219.631 227.124H207.151V222.6H237.259V227.124H224.779V259H219.631V227.124ZM274.226 222.6V259H269.026V242.776H248.122V259H242.922V222.6H248.122V238.252H269.026V222.6H274.226Z" fill="#4FC8E0"/>
</g>
<defs>
<filter id="filter0_d_8_707" x="0" y="1.36792" width="132" height="301" filterUnits="userSpaceOnUse" color-interpolation-filters="sRGB">
<feFlood flood-opacity="0" result="BackgroundImageFix"/>
<feColorMatrix in="SourceAlpha" type="matrix" values="0 0 0 0 0 0 0 0 0 0 0 0 0 0 0 0 0 0 127 0" result="hardAlpha"/>
<feOffset/>
<feGaussianBlur stdDeviation="20"/>
<feComposite in2="hardAlpha" operator="out"/>
<feColorMatrix type="matrix" values="0 0 0 0 0.309804 0 0 0 0 0.784314 0 0 0 0 0.878431 0 0 0 0.5 0"/>
<feBlend mode="normal" in2="BackgroundImageFix" result="effect1_dropShadow_8_707"/>
<feBlend mode="normal" in="SourceGraphic" in2="effect1_dropShadow_8_707" result="shape"/>
</filter>
<filter id="filter1_d_8_707" x="325" y="1.36792" width="132" height="301" filterUnits="userSpaceOnUse" color-interpolation-filters="sRGB">
<feFlood flood-opacity="0" result="BackgroundImageFix"/>
<feColorMatrix in="SourceAlpha" type="matrix" values="0 0 0 0 0 0 0 0 0 0 0 0 0 0 0 0 0 0 127 0" result="hardAlpha"/>
<feOffset/>
<feGaussianBlur stdDeviation="20"/>
<feComposite in2="hardAlpha" operator="out"/>
<feColorMatrix type="matrix" values="0 0 0 0 0.309804 0 0 0 0 0.784314 0 0 0 0 0.878431 0 0 0 0.5 0"/>
<feBlend mode="normal" in2="BackgroundImageFix" result="effect1_dropShadow_8_707"/>
<feBlend mode="normal" in="SourceGraphic" in2="effect1_dropShadow_8_707" result="shape"/>
</filter>
<filter id="filter2_d_8_707" x="134.465" y="0.600006" width="184.387" height="116.4" filterUnits="userSpaceOnUse" color-interpolation-filters="sRGB">
<feFlood flood-opacity="0" result="BackgroundImageFix"/>
<feColorMatrix in="SourceAlpha" type="matrix" values="0 0 0 0 0 0 0 0 0 0 0 0 0 0 0 0 0 0 127 0" result="hardAlpha"/>
<feOffset/>
<feGaussianBlur stdDeviation="20"/>
<feComposite in2="hardAlpha" operator="out"/>
<feColorMatrix type="matrix" values="0 0 0 0 0.309804 0 0 0 0 0.784314 0 0 0 0 0.878431 0 0 0 0.5 0"/>
<feBlend mode="normal" in2="BackgroundImageFix" result="effect1_dropShadow_8_707"/>
<feBlend mode="normal" in="SourceGraphic" in2="effect1_dropShadow_8_707" result="shape"/>
</filter>
<filter id="filter3_d_8_707" x="123.447" y="109.186" width="211.731" height="90.8136" filterUnits="userSpaceOnUse" color-interpolation-filters="sRGB">
<feFlood flood-opacity="0" result="BackgroundImageFix"/>
<feColorMatrix in="SourceAlpha" type="matrix" values="0 0 0 0 0 0 0 0 0 0 0 0 0 0 0 0 0 0 127 0" result="hardAlpha"/>
<feOffset dy="4"/>
<feGaussianBlur stdDeviation="2"/>
<feComposite in2="hardAlpha" operator="out"/>
<feColorMatrix type="matrix" values="0 0 0 0 0 0 0 0 0 0 0 0 0 0 0 0 0 0 0.25 0"/>
<feBlend mode="normal" in2="BackgroundImageFix" result="effect1_dropShadow_8_707"/>
<feBlend mode="normal" in="SourceGraphic" in2="effect1_dropShadow_8_707" result="shape"/>
</filter>
<filter id="filter4_d_8_707" x="136.825" y="182.6" width="177.401" height="116.4" filterUnits="userSpaceOnUse" color-interpolation-filters="sRGB">
<feFlood flood-opacity="0" result="BackgroundImageFix"/>
<feColorMatrix in="SourceAlpha" type="matrix" values="0 0 0 0 0 0 0 0 0 0 0 0 0 0 0 0 0 0 127 0" result="hardAlpha"/>
<feOffset/>
<feGaussianBlur stdDeviation="20"/>
<feComposite in2="hardAlpha" operator="out"/>
<feColorMatrix type="matrix" values="0 0 0 0 0.309804 0 0 0 0 0.784314 0 0 0 0 0.878431 0 0 0 0.5 0"/>
<feBlend mode="normal" in2="BackgroundImageFix" result="effect1_dropShadow_8_707"/>
<feBlend mode="normal" in="SourceGraphic" in2="effect1_dropShadow_8_707" result="shape"/>
</filter>
</defs>
</svg>
