<svg width="88" height="88" viewBox="0 0 88 88" fill="none" xmlns="http://www.w3.org/2000/svg">
<path d="M70.95 36.8132C68.4567 24.1632 57.3467 14.6665 44 14.6665C33.4033 14.6665 24.2 20.6798 19.6167 29.4798C8.58 30.6532 0 40.0032 0 51.3332C0 57.1679 2.31785 62.7637 6.44365 66.8895C10.5695 71.0153 16.1652 73.3332 22 73.3332H69.6667C72.0742 73.3332 74.4582 72.859 76.6825 71.9376C78.9068 71.0163 80.9279 69.6659 82.6303 67.9635C84.3327 66.2611 85.6831 64.24 86.6045 62.0157C87.5258 59.7914 88 57.4074 88 54.9998C88 45.3198 80.4833 37.4732 70.95 36.8132ZM69.6667 65.9998H22C18.1102 65.9998 14.3796 64.4546 11.6291 61.7041C8.87857 58.9535 7.33333 55.223 7.33333 51.3332C7.33333 43.8165 12.9433 37.5465 20.3867 36.7765L24.31 36.3732L26.1433 32.8898C29.6267 26.1798 36.4467 21.9998 44 21.9998C53.6067 21.9998 61.8933 28.8198 63.7633 38.2432L64.8633 43.7432L70.4733 44.1465C76.1933 44.5132 80.6667 49.3165 80.6667 54.9998C80.6667 57.9172 79.5077 60.7151 77.4448 62.778C75.3819 64.8409 72.584 65.9998 69.6667 65.9998ZM29.3333 47.6665H38.6833V58.6665H49.3167V47.6665H58.6667L44 32.9998L29.3333 47.6665Z" fill="#E5E57E"/>
</svg>
