<svg width="88" height="88" viewBox="0 0 88 88" fill="none" xmlns="http://www.w3.org/2000/svg">
<path d="M44 73.3335C27.83 73.3335 14.6667 60.1702 14.6667 44.0002C14.6667 27.8302 27.83 14.6668 44 14.6668C60.17 14.6668 73.3333 27.8302 73.3333 44.0002C73.3333 60.1702 60.17 73.3335 44 73.3335ZM44 7.3335C39.1849 7.3335 34.4169 8.28191 29.9683 10.1246C25.5197 11.9673 21.4776 14.6681 18.0727 18.0729C11.1964 24.9492 7.33333 34.2756 7.33333 44.0002C7.33333 53.7248 11.1964 63.0511 18.0727 69.9274C21.4776 73.3322 25.5197 76.0331 29.9683 77.8757C34.4169 79.7184 39.1849 80.6668 44 80.6668C53.7246 80.6668 63.0509 76.8037 69.9272 69.9274C76.8036 63.0511 80.6667 53.7248 80.6667 44.0002C80.6667 39.185 79.7183 34.417 77.8756 29.9684C76.0329 25.5198 73.3321 21.4777 69.9272 18.0729C66.5224 14.6681 62.4803 11.9673 58.0317 10.1246C53.5831 8.28191 48.8151 7.3335 44 7.3335M36.6667 60.5002L58.6667 44.0002L36.6667 27.5002V60.5002Z" fill="#E5E57E"/>
</svg>
