<svg width="88" height="88" viewBox="0 0 88 88" fill="none" xmlns="http://www.w3.org/2000/svg">
<path d="M48.1433 81.3633L42.1667 67.3199C47.9233 65.1933 53.3133 62.3333 58.3 58.9966L48.1433 81.3633ZM20.68 45.8333L6.63667 39.8566L29.0033 29.6999C25.6667 34.6866 22.8067 40.0766 20.68 45.8333ZM70.4733 14.6666C71.5 14.6666 72.4167 14.6666 73.1867 14.8499C73.81 19.9466 73.1133 30.4333 61.0867 42.4599C54.8533 48.7299 47.41 53.5333 39.05 56.7233L31.1667 49.0232C34.54 40.5533 39.3433 33.1099 45.54 26.9133C55.66 16.7933 64.68 14.6666 70.4733 14.6666ZM70.4733 7.33325C63.2133 7.33325 52.2133 9.86325 40.3333 21.7433C32.3033 29.7733 27.5 38.6099 24.3833 46.3466C23.3567 49.0966 24.0533 52.1033 26.07 54.1566L33.88 61.9299C35.2733 63.3232 37.1433 64.1666 39.0867 64.1666C39.93 64.1666 40.81 63.9466 41.6533 63.6166C49.5 60.6099 58.2267 55.6966 66.2567 47.6666C87.01 26.9133 79.2367 8.76325 79.2367 8.76325C79.2367 8.76325 75.9 7.33325 70.4733 7.33325ZM53.3133 34.6866C50.4533 31.8266 50.4533 27.1699 53.3133 24.3099C56.1733 21.4499 60.83 21.4499 63.69 24.3099C66.5133 27.1699 66.55 31.8266 63.69 34.6866C60.83 37.5466 56.1733 37.5466 53.3133 34.6866ZM32.56 60.6099L27.39 55.4399L32.56 60.6099ZM22.88 80.6666L36.2267 67.3199C34.98 66.9899 33.77 66.4399 32.67 65.6699L17.71 80.6666H22.88ZM7.33334 80.6666H12.5033L29.9933 63.2132L24.7867 58.0432L7.33334 75.4966V80.6666ZM7.33334 70.2899L22.33 55.3299C21.56 54.2299 21.01 53.0566 20.68 51.7732L7.33334 65.1199V70.2899Z" fill="#E5E57E"/>
</svg>
