<svg width="88" height="88" viewBox="0 0 88 88" fill="none" xmlns="http://www.w3.org/2000/svg">
<path d="M35.75 76.4501C42.2767 73.8834 40.8467 66.8068 37.5467 62.3334C34.2833 57.7501 29.7733 54.5968 25.2267 51.5534C22 49.5001 19.03 46.9334 16.6467 44.0001C15.62 42.7901 13.53 40.5534 15.6567 40.1134C17.82 39.6734 21.56 41.8001 23.4667 42.6068C26.8033 44.0001 30.1033 45.6134 33.1833 47.5201L36.8867 41.2868C31.1667 37.5101 23.8333 34.1734 17.0133 33.1834C13.1267 32.5968 9.02 33.4034 7.7 37.6201C6.52666 41.2501 8.39666 44.9168 10.5233 47.7768C15.5467 54.4868 23.3567 57.7134 29.1867 63.5068C30.4333 64.7168 31.9367 66.1468 32.67 67.8334C33.44 69.4468 33.2567 69.5568 31.5333 69.5568C26.9867 69.5568 21.3033 66.0001 17.6 63.6534L13.8967 69.8868C19.5067 73.3334 28.8933 78.7234 35.75 76.4501ZM76.4133 19.2501C77.22 18.4434 77.22 17.1234 76.4133 16.3534L71.6467 11.5868C70.8767 10.8168 69.5567 10.8168 68.7867 11.5868L65.0467 15.3268L72.6733 22.9534M40.3333 40.0401V47.6668H47.96L70.51 25.1168L62.8833 17.4901L40.3333 40.0401Z" fill="#E5E57E"/>
</svg>
