<svg width="963" height="386" viewBox="0 0 963 386" fill="none" xmlns="http://www.w3.org/2000/svg">
<g opacity="0.2">
<path d="M82.8556 9L60.6111 100" stroke="#4FC8E0" stroke-width="6" stroke-linecap="round"/>
<path d="M37.3556 19.1111L5 55.5111L37.3556 91.9111" stroke="#4FC8E0" stroke-width="6" stroke-linecap="round"/>
<path d="M106.111 19.1111L138.467 55.5111L106.111 91.9111" stroke="#4FC8E0" stroke-width="6" stroke-linecap="round"/>
</g>
<g opacity="0.2">
<path d="M827.07 333.493H793.93C788.744 333.493 784.507 329.256 784.507 324.07V290.93C784.507 285.744 788.744 281.507 793.93 281.507H827.07C832.256 281.507 836.493 285.744 836.493 290.93V324.07C836.493 329.256 832.256 333.493 827.07 333.493Z" stroke="#E5E57E" stroke-width="6" stroke-linecap="round" stroke-linejoin="round"/>
<path d="M839.465 352.972H781.535C772.428 352.972 765.028 345.573 765.028 336.466V278.535C765.028 269.428 772.428 262.028 781.535 262.028H839.465C848.572 262.028 855.972 269.428 855.972 278.535V336.466C855.972 345.573 848.572 352.972 839.465 352.972Z" stroke="#E5E57E" stroke-width="6" stroke-linecap="round" stroke-linejoin="round"/>
<path d="M869 307.5H855.972" stroke="#E5E57E" stroke-width="6" stroke-linecap="round" stroke-linejoin="round"/>
<path d="M869 340.007H855.972" stroke="#E5E57E" stroke-width="6" stroke-linecap="round" stroke-linejoin="round"/>
<path d="M869 307.5H855.972" stroke="#E5E57E" stroke-width="6" stroke-linecap="round" stroke-linejoin="round"/>
<path d="M869 274.993H855.972" stroke="#E5E57E" stroke-width="6" stroke-linecap="round" stroke-linejoin="round"/>
<path d="M752 307.5H765.028" stroke="#E5E57E" stroke-width="6" stroke-linecap="round" stroke-linejoin="round"/>
<path d="M752 340.007H765.028" stroke="#E5E57E" stroke-width="6" stroke-linecap="round" stroke-linejoin="round"/>
<path d="M752 307.5H765.028" stroke="#E5E57E" stroke-width="6" stroke-linecap="round" stroke-linejoin="round"/>
<path d="M752 274.993H765.028" stroke="#E5E57E" stroke-width="6" stroke-linecap="round" stroke-linejoin="round"/>
<path d="M810.5 249V262.028" stroke="#E5E57E" stroke-width="6" stroke-linecap="round" stroke-linejoin="round"/>
<path d="M843.007 249V262.028" stroke="#E5E57E" stroke-width="6" stroke-linecap="round" stroke-linejoin="round"/>
<path d="M810.5 249V262.028" stroke="#E5E57E" stroke-width="6" stroke-linecap="round" stroke-linejoin="round"/>
<path d="M777.993 249V262.028" stroke="#E5E57E" stroke-width="6" stroke-linecap="round" stroke-linejoin="round"/>
<path d="M810.5 366V352.971" stroke="#E5E57E" stroke-width="6" stroke-linecap="round" stroke-linejoin="round"/>
<path d="M843.007 366V352.971" stroke="#E5E57E" stroke-width="6" stroke-linecap="round" stroke-linejoin="round"/>
<path d="M810.5 366V352.971" stroke="#E5E57E" stroke-width="6" stroke-linecap="round" stroke-linejoin="round"/>
<path d="M777.993 366V352.971" stroke="#E5E57E" stroke-width="6" stroke-linecap="round" stroke-linejoin="round"/>
</g>
<g opacity="0.2">
<path d="M898.875 84.2812H860.125C852.104 84.2812 845.594 77.7712 845.594 69.75V66.495C845.594 63.8213 845.167 61.1863 844.315 58.6288C843.23 55.4125 840.246 53.2812 836.875 53.2812C835.286 53.2812 833.969 51.9637 833.969 50.375V42.625C833.969 41.0363 835.286 39.7188 836.875 39.7188C840.246 39.7188 843.269 37.5487 844.315 34.3712C845.167 31.8137 845.594 29.1787 845.594 26.505V23.25C845.594 15.2288 852.104 8.71875 860.125 8.71875H898.875C906.896 8.71875 913.406 15.2288 913.406 23.25V26.505C913.406 29.1787 913.833 31.8137 914.685 34.3712C915.77 37.5875 918.754 39.7188 922.125 39.7188C923.714 39.7188 925.031 41.0363 925.031 42.625V50.375C925.031 51.9637 923.714 53.2812 922.125 53.2812C918.754 53.2812 915.731 55.4513 914.685 58.6288C913.833 61.1863 913.406 63.8213 913.406 66.495V69.75C913.406 77.7712 906.896 84.2812 898.875 84.2812ZM839.781 47.7787C844.431 48.7862 848.268 52.1575 849.818 56.8075C850.864 59.9463 851.406 63.2013 851.406 66.495V69.75C851.406 74.555 855.32 78.4688 860.125 78.4688H898.875C903.68 78.4688 907.594 74.555 907.594 69.75V66.495C907.594 63.2013 908.136 59.9463 909.182 56.8075C910.732 52.1575 914.607 48.7862 919.219 47.7787V45.2213C914.569 44.2138 910.732 40.8425 909.182 36.1925C908.136 33.0537 907.594 29.7987 907.594 26.505V23.25C907.594 18.445 903.68 14.5312 898.875 14.5312H860.125C855.32 14.5312 851.406 18.445 851.406 23.25V26.505C851.406 29.7987 850.864 33.0537 849.818 36.1925C848.268 40.8425 844.392 44.2138 839.781 45.2213V47.7787Z" fill="#E5E57E"/>
<path d="M882.096 65.5651H870.781C869.192 65.5651 867.875 64.2476 867.875 62.6588V30.38C867.875 28.7913 869.192 27.4738 870.781 27.4738H882.096C888.141 27.4738 893.062 32.3951 893.062 38.4401C893.062 41.6176 891.706 44.5238 889.498 46.5C891.668 48.515 893.062 51.3825 893.062 54.56C893.062 60.6437 888.141 65.5651 882.096 65.5651ZM873.688 59.7526H882.096C884.964 59.7526 887.25 57.4275 887.25 54.5988C887.25 51.77 884.925 49.4451 882.096 49.4451H873.688V59.7526ZM873.688 43.5938H882.096C884.964 43.5938 887.25 41.2688 887.25 38.4401C887.25 35.6113 884.925 33.2863 882.096 33.2863H873.688V43.5938Z" fill="#E5E57E"/>
</g>
<g opacity="0.2">
<path d="M155.5 380.266C154.304 380.266 153.108 379.977 151.994 379.359L145.889 376.43C144.362 375.687 143.703 373.831 144.445 372.305C145.188 370.779 147.003 370.119 148.57 370.861L154.799 373.872C155.253 374.12 155.665 374.12 155.954 373.955L188.954 355.64C189.284 355.475 189.49 355.104 189.49 354.732V318.35C189.49 317.979 189.284 317.649 188.954 317.442L155.954 299.127C155.624 298.962 155.252 298.962 154.964 299.127L121.964 317.442C121.634 317.607 121.427 317.979 121.427 318.35V354.732C121.427 355.104 121.634 355.434 121.964 355.64L132.318 361.374C133.926 362.281 135.824 362.24 137.432 361.291C139.041 360.342 139.99 358.692 139.99 356.836L140.031 324.125C140.031 322.434 141.434 321.031 143.125 321.031C144.816 321.031 146.219 322.434 146.219 324.125L146.177 356.836C146.177 360.879 144.074 364.55 140.568 366.612C137.061 368.675 132.854 368.716 129.306 366.736L118.953 361.002C116.643 359.724 115.24 357.29 115.24 354.691V318.309C115.24 315.71 116.643 313.276 118.953 311.997L151.953 293.682C154.139 292.445 156.779 292.445 158.965 293.682L191.965 311.997C194.275 313.276 195.677 315.71 195.677 318.309V354.691C195.677 357.29 194.275 359.724 191.965 361.002L158.965 379.317C157.893 379.936 156.696 380.266 155.5 380.266Z" fill="#E626B0"/>
<path d="M168.906 356.094H161.688C155.995 356.094 151.375 351.474 151.375 345.781C151.375 344.09 152.778 342.688 154.469 342.688C156.16 342.688 157.562 344.09 157.562 345.781C157.562 348.05 159.419 349.906 161.688 349.906H168.906C171.175 349.906 173.031 348.05 173.031 345.781C173.031 343.513 171.175 341.656 168.906 341.656H161.688C155.995 341.656 151.375 337.036 151.375 331.344C151.375 325.651 155.995 321.031 161.688 321.031H168.906C174.599 321.031 179.219 325.651 179.219 331.344C179.219 333.035 177.816 334.438 176.125 334.438C174.434 334.438 173.031 333.035 173.031 331.344C173.031 329.075 171.175 327.219 168.906 327.219H161.688C159.419 327.219 157.562 329.075 157.562 331.344C157.562 333.613 159.419 335.469 161.688 335.469H168.906C174.599 335.469 179.219 340.089 179.219 345.781C179.219 351.474 174.599 356.094 168.906 356.094Z" fill="#E626B0"/>
</g>
<g opacity="0.8">
<path d="M18.3333 283.25C18.2833 283.25 18.2333 283.25 18.2 283.25C17.5167 283.167 17.0167 282.55 17.1 281.867L20.4333 251.867C20.5167 251.183 21.1333 250.7 21.8167 250.767C22.5 250.85 23 251.467 22.9167 252.15L19.5833 282.15C19.5 282.783 18.9667 283.25 18.3333 283.25Z" fill="#E626B0"/>
<path d="M28.3333 283.25C28.2833 283.25 28.2333 283.25 28.2 283.25C27.5167 283.167 27.0167 282.55 27.1 281.867L30.4333 251.867C30.5167 251.183 31.1167 250.7 31.8167 250.767C32.5 250.85 33 251.467 32.9167 252.15L29.5833 282.15C29.5 282.783 28.9667 283.25 28.3333 283.25Z" fill="#E626B0"/>
<path d="M40.8333 263.25H10.8333C10.15 263.25 9.58334 262.683 9.58334 262C9.58334 261.317 10.15 260.75 10.8333 260.75H40.8333C41.5167 260.75 42.0833 261.317 42.0833 262C42.0833 262.683 41.5167 263.25 40.8333 263.25Z" fill="#E626B0"/>
<path d="M39.1667 273.25H9.16666C8.48332 273.25 7.91666 272.683 7.91666 272C7.91666 271.317 8.48332 270.75 9.16666 270.75H39.1667C39.85 270.75 40.4167 271.317 40.4167 272C40.4167 272.683 39.85 273.25 39.1667 273.25Z" fill="#E626B0"/>
</g>
<g opacity="0.8">
<path d="M936.333 185.583C936.017 185.583 935.7 185.467 935.45 185.217L932.117 181.883C931.633 181.4 931.633 180.6 932.117 180.117L935.45 176.783C935.933 176.3 936.733 176.3 937.217 176.783C937.7 177.267 937.7 178.067 937.217 178.55L934.767 181L937.217 183.45C937.7 183.933 937.7 184.733 937.217 185.217C936.967 185.467 936.65 185.583 936.333 185.583Z" fill="#4FC8E0"/>
<path d="M949.667 185.583C949.35 185.583 949.033 185.467 948.783 185.217C948.3 184.733 948.3 183.933 948.783 183.45L951.233 181L948.783 178.55C948.3 178.067 948.3 177.267 948.783 176.783C949.267 176.3 950.067 176.3 950.55 176.783L953.883 180.117C954.367 180.6 954.367 181.4 953.883 181.883L950.55 185.217C950.3 185.467 949.983 185.583 949.667 185.583Z" fill="#4FC8E0"/>
<path d="M943 198.917C933.117 198.917 925.083 190.883 925.083 181C925.083 171.117 933.117 163.083 943 163.083C952.883 163.083 960.917 171.117 960.917 181C960.917 190.883 952.883 198.917 943 198.917ZM943 165.583C934.5 165.583 927.583 172.5 927.583 181C927.583 189.5 934.5 196.417 943 196.417C951.5 196.417 958.417 189.5 958.417 181C958.417 172.5 951.5 165.583 943 165.583Z" fill="#4FC8E0"/>
<path d="M941.334 186.133C941.167 186.133 941 186.1 940.85 186.033C940.217 185.767 939.917 185.033 940.2 184.383L943.534 176.6C943.8 175.967 944.534 175.667 945.167 175.95C945.8 176.217 946.1 176.95 945.817 177.6L942.484 185.383C942.284 185.85 941.817 186.133 941.334 186.133Z" fill="#4FC8E0"/>
</g>
</svg>
